<svg xmlns="http://www.w3.org/2000/svg" width="59" height="56.602" viewBox="0 0 59 56.602">
  <g id="logo" transform="translate(-120 -25.398)">
    <text id="bebox" transform="translate(120 76)" fill="#fff" font-size="18" font-family="Poppins-Bold, Poppins" font-weight="700" letter-spacing="0.01em"><tspan x="0" y="0">bebox</tspan></text>
    <path id="Icon_ionic-ios-musical-note" data-name="Icon ionic-ios-musical-note" d="M14.917.013C14.607.072,7.139,1.6,6.862,1.654a.584.584,0,0,0-.534.527h0V19a1.818,1.818,0,0,1-.158.771,1.756,1.756,0,0,1-1.061.837c-.218.073-.514.138-.863.218C2.656,21.179,0,21.785,0,24.237a3.058,3.058,0,0,0,2.307,3.1,4.952,4.952,0,0,0,.91.066,7.8,7.8,0,0,0,3.375-.87A3.551,3.551,0,0,0,8.18,23.387V8.246A.523.523,0,0,1,8.6,7.732l6.117-1.252a1.059,1.059,0,0,0,.844-1.035V.514A.521.521,0,0,0,14.917.013Z" transform="matrix(0.927, 0.375, -0.375, 0.927, 150.626, 25.398)" fill="#fff"/>
  </g>
</svg>
